Coordinates
version=1
nRows=8
nColumns=41
inDegrees=no

If the header above contains a line with 'inDegrees', this indicates whether rotational values are in degrees (yes) or radians (no).

endheader
time	pelvis_tx	pelvis_tz	pelvis_ty	pelvis_tilt	pelvis_list	pelvis_rotation	hip_flexion_r	hip_adduction_r	hip_rotation_r	knee_angle_r	ankle_angle_r	subtalar_angle_r	mtp_angle_r	hip_flexion_l	hip_adduction_l	hip_rotation_l	knee_angle_l	ankle_angle_l	subtalar_angle_l	mtp_angle_l	lumbar_extension	lumbar_bending	lumbar_rotation	neck_extension	neck_bending	neck_rotation	arm_flex_r	arm_add_r	arm_rot_r	elbow_flex_r	pro_sup_r	wrist_flex_r	wrist_dev_r	arm_flex_l	arm_add_l	arm_rot_l	elbow_flex_l	pro_sup_l	wrist_flex_l	wrist_dev_l
2.0	-0.22314453125	3.654296875	2.02734375	0.028664438952437088	-0.10607711159175115	3.014452395774273	0.3589430027930066	-0.19222217032740976	-0.06932301951460063	1.0864731562898664	-0.26120327577691277	-0.20325591163532866	0.6104167054621261	0.036993088630776105	0.18431202989130593	-0.07066374783659836	0.10887140413255758	-0.04806265265378238	-0.22395768850845446	0.5197598926770276	-0.007883725821007603	-0.02920817938285812	-0.02920817938285812	-0.008789340963866743	-0.0193012391079334	0.03862309796894872	-0.0724661317382791	-0.134302102282985	-0.29093404335006195	0.37787819502974895	1.598006540283615	-0.5499331798578044	-0.22614291508844778	-0.02111459854587494	-0.2670472939313384	0.041742989970824415	0.8246858899232627	1.6311026825312298	-0.6157780791181582	-0.07574675631233899
2.04167	-0.2186279296875	3.646484375	2.02734375	0.022703669603584054	-0.08137606501201389	3.055358767858461	0.4154940090950647	-0.17060941309884525	-0.09459450783605478	0.9323890196106608	-0.1273273864560022	-0.15120195898449246	0.6714523324319991	-0.06296118270030893	0.1539568302454696	-0.08215320595231017	0.08022314878211634	-0.04547923442767603	-0.20325591163532866	0.47544086340124786	-0.028490664327467385	-0.0008341150597155914	-0.07198571239540869	-0.0009942358376580085	-0.034468070258421364	0.03051769521231971	-0.1175020340293843	-0.11522191615377719	-0.2831496267830215	0.361252437702834	1.6165678680463271	-0.5532577879563869	-0.21697436947607815	0.021324929982702412	-0.2961402821788026	0.022564625308778615	0.7936333532781839	1.597342363373989	-0.6779790171134343	-0.06750684029255455
2.08333	-0.2108154296875	3.611328125	2.0078125	0.014795512366128749	-0.04807382095881274	3.113383913864923	0.4250839540102488	-0.13969407236134304	-0.18182821120652723	0.6954020508977559	-0.10635227936325124	-0.04044958973309831	0.6149688151699145	-0.16696250481519304	0.14703178167708933	-0.08649242510496567	0.030677250839213244	-0.008468623763568222	-0.16126395183246847	0.5022303692070644	-0.05480243838259513	0.008685921414605712	-0.1058784013788239	0.01796853605728066	-0.02520964944684548	0.01720855185583706	-0.18529530156592977	-0.1332397006219983	-0.3369518512470996	0.3173871462919182	1.5971209431946405	-0.5626999152631563	-0.21408166902382128	0.15084342885055047	-0.37427844976176006	0.12789884615602687	0.7066899552757306	1.5669244491448924	-0.7251336184719036	-0.11577153282642885
2.125	-0.2059326171875	3.62109375	2.00390625	0.018681134188526016	-0.05399606808391533	3.1261955843311116	0.4168627192829102	-0.12121674038142174	-0.24141771787247937	0.37280314337755793	-0.1026297687112688	0.05759402441451012	0.5430822301015493	-0.2486495744539058	0.1392186184686541	-0.10205613220024545	0.006382276806021103	0.025177867893627505	-0.1468314725555892	0.5580874018244607	-0.06107046078569667	0.011722691266253096	-0.13083257767459183	0.03149320540665623	-0.021313160744974885	0.022083362312023777	-0.2507426690440969	-0.15454313601691394	-0.37279594673818467	0.274336780747374	1.587369869452211	-0.565984690689963	-0.22284250456586666	0.2566962705292586	-0.4190427753456306	0.1821983783067901	0.6871417786549997	1.5177470356744243	-0.7549607891471725	-0.17261335106394046
2.16667	-0.2041015625	3.625	1.9912109375	0.02189469314967596	-0.056982238094438475	3.0911639680286562	0.38125716939740506	-0.09908898097851442	-0.286577994873669	0.07259624094294659	-0.057929124572015024	0.19183880712817147	0.45168748619044014	-0.32898141577311435	0.13265618040373034	-0.13429379021931961	-0.005511875977272984	0.03597028421033423	-0.1258033612853738	0.6359316611211437	-0.0647286792526528	0.01402302752136663	-0.14922673443531173	0.04299668293119929	-0.01615060628317332	0.03242420359320923	-0.32324451920799346	-0.17488500311404043	-0.4076968042767582	0.22639155529028487	1.563806698028327	-0.5673893567269274	-0.23707771540305264	0.3681875793397203	-0.4465975983859076	0.25019003992953054	0.6699929851928492	1.4512675572477154	-0.7619268462125214	-0.2358142323812311
2.20833	-0.20458984375	3.62109375	1.9775390625	0.017982539867285707	-0.044877795787121144	3.0696558634821898	0.3797313138651993	-0.0864499513895061	-0.3093720616206607	-0.0036342846649055627	-0.03426926928638101	0.24906860776061934	0.4333286835544591	-0.3989817664824816	0.12188249451507197	-0.1491814609615027	0.003746009150990659	0.02201565785948555	-0.11303066528435314	0.6687699551295821	-0.07076125681122925	0.024451136900699798	-0.16340776527371478	0.04916654526721698	-0.009307105871544655	0.03540945847053966	-0.3762451622803967	-0.14600818165529705	-0.4159109186534221	0.18794272504540843	1.5303007765239547	-0.5603472753300722	-0.24453097007197763	0.4393202153860906	-0.4426551964522596	0.2755366633402589	0.6756926398370489	1.4070585500085904	-0.7633832510306497	-0.26904968748084157
2.25	-0.208984375	3.62890625	1.9765625	0.013675648052596356	-0.03502815835621709	3.0590777183567583	0.36670302022823664	-0.0758371914800949	-0.3016151867841642	0.04972904626930963	-0.09365288688741245	0.22132716456049017	0.5004389707888471	-0.43727276285314554	0.10352223794188681	-0.1601149662297269	0.06820750167541667	-0.050135339525384716	-0.14787679826257694	0.6222067975612072	-0.07210966615380188	0.037452569555642946	-0.17163240924514206	0.05340472661426454	-0.00897925924098921	0.03508801952445747	-0.39874496163101736	-0.14387719913000807	-0.3922760411036577	0.1458377291618742	1.4637021972894568	-0.5636395148315718	-0.2436111881374556	0.438194628551028	-0.4465975983859076	0.2333418036865042	0.7021872094098692	1.4091027491628014	-0.7695329203751967	-0.27352987937118667
2.29167	-0.2177734375	3.634765625	1.978515625	0.009803473791827555	-0.02500734714941899	3.046987644908457	0.3444832267022272	-0.05686338216259758	-0.2870797693141038	0.13653965832848414	-0.1585124276215753	0.19089428181431717	0.576889977420751	-0.4369724692634037	0.08831552152621694	-0.16722978325038407	0.18127972186302488	-0.2109369647898331	-0.18673680687449107	0.4891378575386624	-0.06107046078569667	0.05063787782644254	-0.18302247883925962	0.04943269778500492	-0.017231549298741062	0.03676394395629353	-0.40475380262106564	-0.15347532755302606	-0.3571962403384489	0.1153795379264333	1.3992195843313824	-0.568324623491009	-0.23896156437541813	0.38269096882001247	-0.44152914197529913	0.16439376132227168	0.7131389660388636	1.4490049485372667	-0.7862028571032531	-0.2686374521533069
